PathFileType	4	(X/Y/Z)	c:/Users/goper/Files/vsCode/490R/osim_files/A06/A06_SSWS_05.trc
DataRate	CameraRate	NumFrames	NumMarkers	Units                	OrigDataRate	OrigDataStartFrame	OrigNumFrames
120.00	120.00	7	36	mm	120.0	946	1261
                Frame#	Time	LPSIS			LASIS			LTH1			LTH2			LTH3			LTH4			LLFE			LMFE			LSH1			LSH2			LSH3			LSH4			LLMAL			LMMAL			LCAL			LMTP5			LTOE			LMTP1			RPSIS			RASIS			RTH1			RTH2			RTH3			RTH4			RLFE			RMFE			RSH1			RSH2			RSH3			RSH4			RLMAL			RMMAL			RCAL			RMTP1			RTOE			RMTP5		
		X1	Y1	Z1	X2	Y2	Z2	X3	Y3	Z3	X4	Y4	Z4	X5	Y5	Z5	X6	Y6	Z6	X7	Y7	Z7	X8	Y8	Z8	X9	Y9	Z9	X10	Y10	Z10	X11	Y11	Z11	X12	Y12	Z12	X13	Y13	Z13	X14	Y14	Z14	X15	Y15	Z15	X16	Y16	Z16	X17	Y17	Z17	X18	Y18	Z18	X19	Y19	Z19	X20	Y20	Z20	X21	Y21	Z21	X22	Y22	Z22	X23	Y23	Z23	X24	Y24	Z24	X25	Y25	Z25	X26	Y26	Z26	X27	Y27	Z27	X28	Y28	Z28	X29	Y29	Z29	X30	Y30	Z30	X31	Y31	Z31	X32	Y32	Z32	X33	Y33	Z33	X34	Y34	Z34	X35	Y35	Z35	X36	Y36	Z36

946	7.87500	-2028.19556	989.42706	335.83487	-2222.82251	936.56610	395.11536	-2093.35449	585.49225	423.59537	-2092.99658	542.93146	417.67422	-2156.10547	575.09302	411.93762	-2141.99902	533.13446	404.64499	-2100.13745	466.70688	401.22894	-2097.34644	461.86697	289.46207	-2021.31177	384.95465	412.53931	-2019.57971	338.99231	417.40683	-2083.26465	375.38287	406.78281	-2073.57031	334.89456	409.24976	-1980.43591	88.36368	370.26114	-2001.44604	102.26747	286.22733	-1915.43823	80.90222	317.33228	-2093.40601	39.31326	392.38135	-2136.45898	59.28892	338.14560	-2112.11743	52.76292	299.36801	-2021.04370	1008.54199	205.65388	-2194.45020	984.62830	143.34036	-2204.08130	591.62988	102.40010	-2221.48535	554.54376	100.73602	-2258.66577	615.23828	115.47628	-2270.86084	573.04047	110.78396	-2283.77441	455.56302	129.15193	-2277.90063	452.99371	217.46513	-2305.19580	299.30859	138.93326	-2319.26807	253.33076	140.43646	-2363.44897	312.12061	155.48763	-2369.70581	264.09418	150.43681	-2355.90063	119.45309	129.00288	-2359.55859	125.17461	214.56520	-2303.22119	82.23522	172.40912	-2499.75098	119.84180	218.35594	-2512.99829	137.84607	179.93660	-2497.57422	116.35834	129.85632
947	7.88333	-2036.87329	987.42883	335.50998	-2231.02100	935.01984	395.14740	-2099.09229	584.59302	423.56787	-2098.33691	542.00244	417.53580	-2161.74829	573.79956	411.74011	-2147.26270	531.91449	404.43167	-2104.46558	465.88596	401.15543	-2101.29346	461.20190	289.24420	-2024.73645	384.88293	412.24854	-2022.63379	338.75824	417.35324	-2086.59546	374.62347	406.69504	-2076.41699	334.28073	409.16669	-1980.61963	88.51543	370.17456	-2001.66162	102.32345	286.04492	-1915.65820	81.11596	317.31964	-2093.43384	39.24852	392.41650	-2136.55493	59.11005	338.11227	-2112.23755	52.59304	299.36523	-2029.39563	1006.60413	205.01877	-2203.80835	982.65741	143.50949	-2213.31909	590.02533	102.21989	-2231.30054	553.13513	100.56603	-2267.74780	614.31421	115.19420	-2281.19141	572.23926	110.80091	-2294.66675	454.94275	128.72372	-2289.19971	452.36514	217.08157	-2321.02002	299.38571	138.51083	-2335.50830	253.78874	140.38170	-2378.54712	313.80408	155.13222	-2386.10596	266.04556	150.15916	-2376.37842	121.03548	128.92014	-2379.91943	126.99679	214.37489	-2323.28076	83.23333	171.70811	-2520.35352	125.51420	218.03438	-2533.03662	143.93033	179.54640	-2518.12769	121.93052	129.54689
948	7.89167	-2045.12634	985.59930	334.90729	-2239.23779	933.29663	395.10507	-2104.85229	583.65674	423.59888	-2102.79956	541.33539	417.07056	-2167.39478	572.53284	411.57681	-2152.52393	530.62115	404.20105	-2108.85083	464.96848	401.00311	-2105.36133	460.46497	289.01883	-2028.37219	384.59552	412.27228	-2025.75684	338.57751	417.32553	-2090.04053	373.79114	406.54880	-2079.52295	333.51166	408.89554	-1980.83630	88.68199	370.10049	-2001.87109	102.41914	285.91434	-1915.71924	81.40802	317.29990	-2093.39868	39.15506	392.44150	-2136.58398	58.86858	338.06403	-2112.30786	52.42612	299.36243	-2037.68372	1004.60144	204.36966	-2211.44629	979.84961	143.24898	-2222.71240	588.54510	102.13343	-2241.33154	551.97595	100.36728	-2277.02637	613.56183	114.75977	-2291.05493	571.59619	110.40022	-2306.05005	454.55545	128.35213	-2301.42993	452.05484	216.75458	-2335.48364	299.68863	138.57730	-2350.67993	254.87901	140.23965	-2393.23218	315.44189	154.73129	-2400.48462	268.90741	148.72647	-2395.30249	122.65354	128.95941	-2399.07666	128.92966	214.49968	-2343.68286	83.47169	172.84549	-2539.75830	130.57219	217.22643	-2551.65381	150.04489	178.11160	-2537.04126	126.68611	128.73123
949	7.90000	-2053.47192	983.74933	334.30841	-2247.59961	931.49103	394.88831	-2110.83838	582.65784	423.56259	-2109.15820	540.19995	417.33719	-2171.77612	571.85919	408.38699	-2157.93628	529.26178	403.98004	-2113.54395	463.97491	400.94510	-2109.41406	459.63297	288.76904	-2032.64868	384.27927	412.51743	-2028.73901	338.46494	417.53250	-2093.85767	372.87991	406.37775	-2082.79492	332.76797	408.74081	-1981.18445	88.91014	370.07642	-2002.17053	102.54198	285.82581	-1915.92456	81.66923	317.33960	-2093.42456	39.01803	392.50916	-2136.59619	58.92136	338.25113	-2112.41406	52.25296	299.36572	-2045.96057	1002.59406	203.67781	-2219.88184	977.34985	143.06346	-2232.28198	587.10657	101.99910	-2251.43823	550.65350	100.22352	-2287.27905	612.99316	114.24696	-2302.14380	571.19794	109.97397	-2317.58472	454.19269	127.96829	-2313.43091	452.02722	216.42010	-2349.96338	299.91464	138.65585	-2366.68506	255.53578	140.07846	-2407.57373	316.85529	154.19028	-2415.90356	270.25272	148.26186	-2412.99805	124.07426	129.25789	-2417.63086	130.81323	214.74245	-2360.86914	85.16827	173.25578	-2558.11304	135.13066	216.02922	-2569.51001	154.63574	176.76424	-2554.81372	130.77704	127.67117
950	7.90833	-2061.28613	982.19788	333.57861	-2256.44556	929.54950	394.88776	-2117.48511	581.97949	423.92145	-2114.77979	539.17987	417.27243	-2178.39355	570.77112	408.49005	-2163.61523	527.91144	403.70087	-2119.31348	463.81631	400.74478	-2113.71826	458.90659	288.44409	-2036.75891	384.00790	412.61899	-2032.33215	338.26862	417.56543	-2097.73169	372.00531	406.07120	-2086.27197	331.95401	408.47165	-1981.59131	89.20827	370.07407	-2002.53735	102.74132	285.71817	-1916.13989	82.02020	317.40741	-2093.48608	38.88303	392.56958	-2136.72583	58.65164	338.21606	-2112.49072	52.01498	299.38458	-2054.19019	1000.57867	203.01741	-2228.40967	974.93457	142.71150	-2240.15747	586.12286	101.19221	-2261.34741	549.47723	100.10379	-2297.03394	612.07635	112.83439	-2311.55078	569.98291	109.23365	-2329.16284	453.76764	127.58798	-2326.04126	452.02600	216.11757	-2364.34204	300.06842	138.81224	-2381.37280	255.74611	140.70515	-2421.69360	318.02023	153.53719	-2430.68335	271.55225	147.98221	-2430.25879	125.22077	129.55420	-2435.36182	132.54855	215.08568	-2378.35449	86.06117	174.35614	-2575.73730	139.12062	214.60329	-2586.41699	158.49054	175.09355	-2571.31836	134.10526	126.23262
951	7.91667	-2069.81860	980.20984	333.03516	-2264.56958	927.62073	394.15903	-2123.68213	580.96246	423.82278	-2119.95508	538.43536	416.70758	-2183.71191	568.76508	407.85687	-2169.31592	526.58374	403.45883	-2123.33618	461.92630	400.62109	-2118.16455	458.16611	288.04190	-2040.93896	383.83804	412.67880	-2036.44531	337.97345	417.34805	-2101.79834	371.07977	405.81131	-2089.88159	331.25885	408.28403	-1982.09058	89.58000	370.06177	-2002.94592	102.97087	285.60696	-1916.35986	82.46169	317.52155	-2093.45605	38.95545	392.73932	-2136.86792	58.32616	338.15250	-2112.61304	51.76001	299.41833	-2062.51318	998.41772	202.50163	-2236.92310	972.54889	142.25818	-2250.01807	584.56244	101.19155	-2271.14453	548.32129	99.88452	-2306.96826	611.09711	112.04189	-2321.29883	568.92535	108.20663	-2340.55518	453.19669	127.26556	-2338.63599	452.05453	215.77129	-2378.09668	300.04669	138.99709	-2395.88647	256.16095	140.63544	-2435.23975	318.88821	152.83812	-2445.08350	272.32004	147.63394	-2445.59668	126.06390	130.20395	-2452.27441	134.03827	215.42297	-2391.77832	88.17538	174.12244	-2592.52759	142.52170	212.91138	-2603.14722	161.37288	173.00839	-2587.01929	136.78424	124.72321
952	7.92500	-2078.30347	978.33868	332.56726	-2273.39868	925.85046	393.53125	-2129.95117	579.97485	423.67499	-2126.61084	537.29865	416.95844	-2189.83643	567.30194	407.62192	-2175.17871	525.32697	403.02649	-2128.37695	460.99023	400.26675	-2122.90918	457.49713	287.58469	-2045.14648	383.77151	412.50583	-2040.17920	337.90491	417.16309	-2105.93164	370.31049	405.38879	-2093.48999	330.61038	407.84906	-1982.68286	90.03799	370.06506	-2003.47839	103.24589	285.47311	-1916.64575	82.92670	317.57965	-2093.81226	38.73718	392.80801	-2137.06885	57.97620	338.09949	-2112.76514	51.52038	299.44385	-2070.83911	996.10718	202.06671	-2245.80981	970.58203	141.55971	-2259.95947	582.91663	101.21825	-2281.33057	546.86469	99.86785	-2316.63379	609.93152	111.26582	-2331.66602	568.25018	107.34503	-2351.87695	452.41962	126.90637	-2351.48804	452.07513	215.40727	-2392.21289	299.79446	139.01627	-2410.14478	255.91934	141.17790	-2448.39648	319.33344	152.17554	-2459.19336	273.12796	147.15794	-2461.03052	126.53936	130.52844	-2468.44360	135.29253	215.79538	-2401.49536	88.27787	177.48996	-2608.73999	145.61011	211.31697	-2619.45410	163.59703	171.07001	-2601.76440	138.77034	123.07524
